<?xml version="1.0" encoding="UTF-8"?>
<svg id="Lag_1" data-name="Lag 1" xmlns="http://www.w3.org/2000/svg" viewBox="0 0 824 139.9">
  <defs>
    <style>
      .cls-1 {
        fill: #f6ebe1;
        stroke-width: 0px;
      }
    </style>
  </defs>
  <path class="cls-1" d="M0,135.7V4.1h58.5c28.3,0,47.5,18.7,47.5,45.7,0,19.1-10.4,34.7-26.8,41.8,11.5,14.6,22.9,29.3,34,44.1h-34c-10.7-13.5-21.2-27.2-31.5-41h-19.4v41H0ZM58.5,70c8.8,0,19.3-6.5,19.3-20.2,0-6.8-2.5-21-19.3-21h-30.2v41.2h30.2ZM172.1,58.1h63v24.9h-63v28.1h71.3v24.6h-99.7V4.1h99.7v24.7h-71.3v29.3ZM310.9,57.8h62.8v24.7h-62.8v53.3h-28.6V4.1h99.7v24.7h-71.1v29ZM438.3,135.6L503.8,4.1h31.5l-65.2,131.4h-31.8M591.1,135.7h-28.3V0l90.7,80.3V4.3h28.5v135.6l-90.9-79v74.8ZM752.8,58.1h63v24.9h-63v28.1h71.2v24.6h-99.7V4.1h99.7v24.7h-71.2v29.3Z"/>
  <path class="cls-1" d="M458.2,91.9L414.7,4.1h31.5l27.6,56.9-15.6,30.9Z"/>
</svg>